<?xml version="1.0" encoding="UTF-8" standalone="no"?>
<!-- Created with Inkscape (http://www.inkscape.org/) -->

<svg
   xmlns:dc="http://purl.org/dc/elements/1.1/"
   xmlns:cc="http://creativecommons.org/ns#"
   xmlns:rdf="http://www.w3.org/1999/02/22-rdf-syntax-ns#"
   xmlns:svg="http://www.w3.org/2000/svg"
   xmlns="http://www.w3.org/2000/svg"
   xmlns:sodipodi="http://sodipodi.sourceforge.net/DTD/sodipodi-0.dtd"
   xmlns:inkscape="http://www.inkscape.org/namespaces/inkscape"
   id="svg2"
   version="1.1"
   inkscape:version="0.48.2 r9819"
   width="744.15"
   height="1052.4"
   xml:space="preserve"
   sodipodi:docname="ExemploIndividuoX.pdf"><metadata
     id="metadata8"><rdf:RDF><cc:Work
         rdf:about=""><dc:format>image/svg+xml</dc:format><dc:type
           rdf:resource="http://purl.org/dc/dcmitype/StillImage" /><dc:title></dc:title></cc:Work></rdf:RDF></metadata><defs
     id="defs6"><clipPath
       clipPathUnits="userSpaceOnUse"
       id="clipPath16"><path
         d="m 214.25,757.3 54.12,0 0,11.544 -54.12,0 0,-11.544 z"
         clip-rule="evenodd"
         id="path18" /></clipPath><clipPath
       clipPathUnits="userSpaceOnUse"
       id="clipPath24"><path
         d="m 214.25,757.3 54.12,0 0,11.544 -54.12,0 0,-11.544 z"
         clip-rule="evenodd"
         id="path26" /></clipPath><clipPath
       clipPathUnits="userSpaceOnUse"
       id="clipPath36"><path
         d="m 214.25,757.3 54.12,0 0,11.544 -54.12,0 0,-11.544 z"
         clip-rule="evenodd"
         id="path38" /></clipPath><clipPath
       clipPathUnits="userSpaceOnUse"
       id="clipPath48"><path
         d="m 214.25,757.3 54.12,0 0,11.544 -54.12,0 0,-11.544 z"
         clip-rule="evenodd"
         id="path50" /></clipPath><clipPath
       clipPathUnits="userSpaceOnUse"
       id="clipPath56"><path
         d="m 214.25,757.3 54.12,0 0,11.544 -54.12,0 0,-11.544 z"
         clip-rule="evenodd"
         id="path58" /></clipPath><clipPath
       clipPathUnits="userSpaceOnUse"
       id="clipPath68"><path
         d="m 214.25,757.3 54.12,0 0,11.544 -54.12,0 0,-11.544 z"
         clip-rule="evenodd"
         id="path70" /></clipPath><clipPath
       clipPathUnits="userSpaceOnUse"
       id="clipPath76"><path
         d="m 270.65,757.3 56.664,0 0,11.544 -56.664,0 0,-11.544 z"
         clip-rule="evenodd"
         id="path78" /></clipPath><clipPath
       clipPathUnits="userSpaceOnUse"
       id="clipPath84"><path
         d="m 270.65,757.3 56.664,0 0,11.544 -56.664,0 0,-11.544 z"
         clip-rule="evenodd"
         id="path86" /></clipPath><clipPath
       clipPathUnits="userSpaceOnUse"
       id="clipPath96"><path
         d="m 270.65,757.3 56.664,0 0,11.544 -56.664,0 0,-11.544 z"
         clip-rule="evenodd"
         id="path98" /></clipPath><clipPath
       clipPathUnits="userSpaceOnUse"
       id="clipPath108"><path
         d="m 270.65,757.3 56.664,0 0,11.544 -56.664,0 0,-11.544 z"
         clip-rule="evenodd"
         id="path110" /></clipPath><clipPath
       clipPathUnits="userSpaceOnUse"
       id="clipPath116"><path
         d="m 270.65,757.3 56.664,0 0,11.544 -56.664,0 0,-11.544 z"
         clip-rule="evenodd"
         id="path118" /></clipPath><clipPath
       clipPathUnits="userSpaceOnUse"
       id="clipPath128"><path
         d="m 270.65,757.3 56.664,0 0,11.544 -56.664,0 0,-11.544 z"
         clip-rule="evenodd"
         id="path130" /></clipPath><clipPath
       clipPathUnits="userSpaceOnUse"
       id="clipPath136"><path
         d="m 329.47,757.3 51.72,0 0,11.544 -51.72,0 0,-11.544 z"
         clip-rule="evenodd"
         id="path138" /></clipPath><clipPath
       clipPathUnits="userSpaceOnUse"
       id="clipPath144"><path
         d="m 329.47,757.3 51.72,0 0,11.544 -51.72,0 0,-11.544 z"
         clip-rule="evenodd"
         id="path146" /></clipPath><clipPath
       clipPathUnits="userSpaceOnUse"
       id="clipPath156"><path
         d="m 329.47,757.3 51.72,0 0,11.544 -51.72,0 0,-11.544 z"
         clip-rule="evenodd"
         id="path158" /></clipPath><clipPath
       clipPathUnits="userSpaceOnUse"
       id="clipPath168"><path
         d="m 329.47,757.3 51.72,0 0,11.544 -51.72,0 0,-11.544 z"
         clip-rule="evenodd"
         id="path170" /></clipPath><clipPath
       clipPathUnits="userSpaceOnUse"
       id="clipPath176"><path
         d="m 329.47,757.3 51.72,0 0,11.544 -51.72,0 0,-11.544 z"
         clip-rule="evenodd"
         id="path178" /></clipPath><clipPath
       clipPathUnits="userSpaceOnUse"
       id="clipPath188"><path
         d="m 329.47,757.3 51.72,0 0,11.544 -51.72,0 0,-11.544 z"
         clip-rule="evenodd"
         id="path190" /></clipPath><clipPath
       clipPathUnits="userSpaceOnUse"
       id="clipPath260"><path
         d="m 213.41,743.5 55.8,0 0,11.52 -55.8,0 0,-11.52 z"
         clip-rule="evenodd"
         id="path262" /></clipPath><clipPath
       clipPathUnits="userSpaceOnUse"
       id="clipPath268"><path
         d="m 213.41,743.5 55.8,0 0,11.52 -55.8,0 0,-11.52 z"
         clip-rule="evenodd"
         id="path270" /></clipPath><clipPath
       clipPathUnits="userSpaceOnUse"
       id="clipPath280"><path
         d="m 213.41,743.5 55.8,0 0,11.52 -55.8,0 0,-11.52 z"
         clip-rule="evenodd"
         id="path282" /></clipPath><clipPath
       clipPathUnits="userSpaceOnUse"
       id="clipPath288"><path
         d="m 269.69,743.5 58.464,0 0,11.52 -58.464,0 0,-11.52 z"
         clip-rule="evenodd"
         id="path290" /></clipPath><clipPath
       clipPathUnits="userSpaceOnUse"
       id="clipPath296"><path
         d="m 269.69,743.5 58.464,0 0,11.52 -58.464,0 0,-11.52 z"
         clip-rule="evenodd"
         id="path298" /></clipPath><clipPath
       clipPathUnits="userSpaceOnUse"
       id="clipPath308"><path
         d="m 269.69,743.5 58.464,0 0,11.52 -58.464,0 0,-11.52 z"
         clip-rule="evenodd"
         id="path310" /></clipPath><clipPath
       clipPathUnits="userSpaceOnUse"
       id="clipPath316"><path
         d="m 328.63,743.5 53.4,0 0,11.52 -53.4,0 0,-11.52 z"
         clip-rule="evenodd"
         id="path318" /></clipPath><clipPath
       clipPathUnits="userSpaceOnUse"
       id="clipPath324"><path
         d="m 328.63,743.5 53.4,0 0,11.52 -53.4,0 0,-11.52 z"
         clip-rule="evenodd"
         id="path326" /></clipPath><clipPath
       clipPathUnits="userSpaceOnUse"
       id="clipPath336"><path
         d="m 328.63,743.5 53.4,0 0,11.52 -53.4,0 0,-11.52 z"
         clip-rule="evenodd"
         id="path338" /></clipPath><clipPath
       clipPathUnits="userSpaceOnUse"
       id="clipPath410"><path
         d="m 213.41,731.5 55.8,0 0,11.52 -55.8,0 0,-11.52 z"
         clip-rule="evenodd"
         id="path412" /></clipPath><clipPath
       clipPathUnits="userSpaceOnUse"
       id="clipPath418"><path
         d="m 213.41,731.5 55.8,0 0,11.52 -55.8,0 0,-11.52 z"
         clip-rule="evenodd"
         id="path420" /></clipPath><clipPath
       clipPathUnits="userSpaceOnUse"
       id="clipPath430"><path
         d="m 213.41,731.5 55.8,0 0,11.52 -55.8,0 0,-11.52 z"
         clip-rule="evenodd"
         id="path432" /></clipPath><clipPath
       clipPathUnits="userSpaceOnUse"
       id="clipPath438"><path
         d="m 269.69,731.5 58.464,0 0,11.52 -58.464,0 0,-11.52 z"
         clip-rule="evenodd"
         id="path440" /></clipPath><clipPath
       clipPathUnits="userSpaceOnUse"
       id="clipPath446"><path
         d="m 269.69,731.5 58.464,0 0,11.52 -58.464,0 0,-11.52 z"
         clip-rule="evenodd"
         id="path448" /></clipPath><clipPath
       clipPathUnits="userSpaceOnUse"
       id="clipPath458"><path
         d="m 269.69,731.5 58.464,0 0,11.52 -58.464,0 0,-11.52 z"
         clip-rule="evenodd"
         id="path460" /></clipPath><clipPath
       clipPathUnits="userSpaceOnUse"
       id="clipPath466"><path
         d="m 328.63,731.5 53.4,0 0,11.52 -53.4,0 0,-11.52 z"
         clip-rule="evenodd"
         id="path468" /></clipPath><clipPath
       clipPathUnits="userSpaceOnUse"
       id="clipPath474"><path
         d="m 328.63,731.5 53.4,0 0,11.52 -53.4,0 0,-11.52 z"
         clip-rule="evenodd"
         id="path476" /></clipPath><clipPath
       clipPathUnits="userSpaceOnUse"
       id="clipPath486"><path
         d="m 328.63,731.5 53.4,0 0,11.52 -53.4,0 0,-11.52 z"
         clip-rule="evenodd"
         id="path488" /></clipPath><clipPath
       clipPathUnits="userSpaceOnUse"
       id="clipPath516"><path
         d="m 213.41,719.5 55.8,0 0,11.52 -55.8,0 0,-11.52 z"
         clip-rule="evenodd"
         id="path518" /></clipPath><clipPath
       clipPathUnits="userSpaceOnUse"
       id="clipPath524"><path
         d="m 213.41,719.5 55.8,0 0,11.52 -55.8,0 0,-11.52 z"
         clip-rule="evenodd"
         id="path526" /></clipPath><clipPath
       clipPathUnits="userSpaceOnUse"
       id="clipPath536"><path
         d="m 213.41,719.5 55.8,0 0,11.52 -55.8,0 0,-11.52 z"
         clip-rule="evenodd"
         id="path538" /></clipPath><clipPath
       clipPathUnits="userSpaceOnUse"
       id="clipPath548"><path
         d="m 213.41,719.5 55.8,0 0,11.52 -55.8,0 0,-11.52 z"
         clip-rule="evenodd"
         id="path550" /></clipPath><clipPath
       clipPathUnits="userSpaceOnUse"
       id="clipPath556"><path
         d="m 269.69,719.5 58.464,0 0,11.52 -58.464,0 0,-11.52 z"
         clip-rule="evenodd"
         id="path558" /></clipPath><clipPath
       clipPathUnits="userSpaceOnUse"
       id="clipPath564"><path
         d="m 269.69,719.5 58.464,0 0,11.52 -58.464,0 0,-11.52 z"
         clip-rule="evenodd"
         id="path566" /></clipPath><clipPath
       clipPathUnits="userSpaceOnUse"
       id="clipPath572"><path
         d="m 328.63,719.5 53.4,0 0,11.52 -53.4,0 0,-11.52 z"
         clip-rule="evenodd"
         id="path574" /></clipPath><clipPath
       clipPathUnits="userSpaceOnUse"
       id="clipPath580"><path
         d="m 328.63,719.5 53.4,0 0,11.52 -53.4,0 0,-11.52 z"
         clip-rule="evenodd"
         id="path582" /></clipPath><clipPath
       clipPathUnits="userSpaceOnUse"
       id="clipPath592"><path
         d="m 328.63,719.5 53.4,0 0,11.52 -53.4,0 0,-11.52 z"
         clip-rule="evenodd"
         id="path594" /></clipPath><clipPath
       clipPathUnits="userSpaceOnUse"
       id="clipPath622"><path
         d="m 213.41,707.5 55.8,0 0,11.52 -55.8,0 0,-11.52 z"
         clip-rule="evenodd"
         id="path624" /></clipPath><clipPath
       clipPathUnits="userSpaceOnUse"
       id="clipPath630"><path
         d="m 213.41,707.5 55.8,0 0,11.52 -55.8,0 0,-11.52 z"
         clip-rule="evenodd"
         id="path632" /></clipPath><clipPath
       clipPathUnits="userSpaceOnUse"
       id="clipPath642"><path
         d="m 213.41,707.5 55.8,0 0,11.52 -55.8,0 0,-11.52 z"
         clip-rule="evenodd"
         id="path644" /></clipPath><clipPath
       clipPathUnits="userSpaceOnUse"
       id="clipPath650"><path
         d="m 269.69,707.5 58.704,0 0,11.52 -58.704,0 0,-11.52 z"
         clip-rule="evenodd"
         id="path652" /></clipPath><clipPath
       clipPathUnits="userSpaceOnUse"
       id="clipPath658"><path
         d="m 269.69,707.5 58.704,0 0,11.52 -58.704,0 0,-11.52 z"
         clip-rule="evenodd"
         id="path660" /></clipPath><clipPath
       clipPathUnits="userSpaceOnUse"
       id="clipPath666"><path
         d="m 328.39,707.5 53.88,0 0,11.52 -53.88,0 0,-11.52 z"
         clip-rule="evenodd"
         id="path668" /></clipPath><clipPath
       clipPathUnits="userSpaceOnUse"
       id="clipPath674"><path
         d="m 328.39,707.5 53.88,0 0,11.52 -53.88,0 0,-11.52 z"
         clip-rule="evenodd"
         id="path676" /></clipPath></defs><sodipodi:namedview
     pagecolor="#ffffff"
     bordercolor="#666666"
     borderopacity="1"
     objecttolerance="10"
     gridtolerance="10"
     guidetolerance="10"
     inkscape:pageopacity="0"
     inkscape:pageshadow="2"
     inkscape:window-width="1280"
     inkscape:window-height="738"
     id="namedview4"
     showgrid="false"
     inkscape:zoom="2.5370915"
     inkscape:cx="382.59199"
     inkscape:cy="909.31615"
     inkscape:window-x="-8"
     inkscape:window-y="-8"
     inkscape:window-maximized="1"
     inkscape:current-layer="g10" /><g
     id="g10"
     inkscape:groupmode="layer"
     inkscape:label="ExemploIndividuoX"
     transform="matrix(1.25,0,0,-1.25,0,1052.4)"><g
       id="g12"><g
         id="g14"
         clip-path="url(#clipPath16)"><g
           id="g20"><g
             id="g22"
             clip-path="url(#clipPath24)"><text
               transform="matrix(1,0,0,-1,218.45,759.82)"
               id="text28"><tspan
                 style="fill:#000000;fill-opacity:1;fill-rule:nonzero;stroke:none;font-family:Times New Roman;font-variant:normal;font-weight:normal;font-size:9.96;writing-mode:lr;-inkscape-font-specification:Times New"
                 x="0 7.08156 12.11136"
                 y="0"
                 sodipodi:role="line"
                 id="tspan30">A1 </tspan></text>
</g></g><g
           id="g32"><g
             id="g34"
             clip-path="url(#clipPath36)"><text
               transform="matrix(1,0,0,-1,233.09,759.82)"
               id="text40"><tspan
                 style="fill:#000000;fill-opacity:1;fill-rule:nonzero;stroke:none;font-family:Times New Roman;font-variant:normal;font-weight:bold;font-size:9.96;writing-mode:lr;-inkscape-font-specification:'Times New Roman, Bold'"
                 x="0 5.0298 10.56756"
                 y="0"
                 sodipodi:role="line"
                 id="tspan42">and</tspan></text>
</g></g><g
           id="g44"><g
             id="g46"
             clip-path="url(#clipPath48)" /></g><g
           id="g52"><g
             id="g54"
             clip-path="url(#clipPath56)"><text
               transform="matrix(1,0,0,-1,251.81,759.82)"
               id="text60"><tspan
                 style="fill:#000000;fill-opacity:1;fill-rule:nonzero;stroke:none;font-family:Times New Roman;font-variant:normal;font-weight:normal;font-size:9.96;writing-mode:lr;-inkscape-font-specification:Times New"
                 x="0 7.08012"
                 y="0"
                 sodipodi:role="line"
                 id="tspan62">A2</tspan></text>
</g></g><g
           id="g64"><g
             id="g66"
             clip-path="url(#clipPath68)" /></g></g></g><g
       id="g72"><g
         id="g74"
         clip-path="url(#clipPath76)"><g
           id="g80"><g
             id="g82"
             clip-path="url(#clipPath84)"><text
               transform="matrix(1,0,0,-1,280.25,759.82)"
               id="text88"><tspan
                 style="fill:#000000;fill-opacity:1;fill-rule:nonzero;stroke:none;font-family:Times New Roman;font-variant:normal;font-weight:normal;font-size:9.96;writing-mode:lr;-inkscape-font-specification:Times New"
                 x="0 5.6274 10.6572"
                 y="0"
                 sodipodi:role="line"
                 id="tspan90">P1 </tspan></text>
</g></g><g
           id="g92"><g
             id="g94"
             clip-path="url(#clipPath96)"><text
               transform="matrix(1,0,0,-1,293.45,759.82)"
               id="text100"><tspan
                 style="fill:#000000;fill-opacity:1;fill-rule:nonzero;stroke:none;font-family:Times New Roman;font-variant:normal;font-weight:bold;font-size:9.96;writing-mode:lr;-inkscape-font-specification:'Times New Roman, Bold'"
                 x="0 5.04"
                 y="0"
                 sodipodi:role="line"
                 id="tspan102">or</tspan></text>
</g></g><g
           id="g104"><g
             id="g106"
             clip-path="url(#clipPath108)" /></g><g
           id="g112"><g
             id="g114"
             clip-path="url(#clipPath116)"><text
               transform="matrix(1,0,0,-1,305.33,759.82)"
               id="text120"><tspan
                 style="fill:#000000;fill-opacity:1;fill-rule:nonzero;stroke:none;font-family:Times New Roman;font-variant:normal;font-weight:normal;font-size:9.96;writing-mode:lr;-inkscape-font-specification:Times New"
                 x="0 7.08012"
                 y="0"
                 sodipodi:role="line"
                 id="tspan122">A2</tspan></text>
</g></g><g
           id="g124"><g
             id="g126"
             clip-path="url(#clipPath128)" /></g></g></g><g
       id="g132"><g
         id="g134"
         clip-path="url(#clipPath136)"><g
           id="g140"><g
             id="g142"
             clip-path="url(#clipPath144)"><text
               transform="matrix(1,0,0,-1,334.15,759.82)"
               id="text148"><tspan
                 style="fill:#000000;fill-opacity:1;fill-rule:nonzero;stroke:none;font-family:Times New Roman;font-variant:normal;font-weight:normal;font-size:9.96;writing-mode:lr;-inkscape-font-specification:Times New"
                 x="0 5.6274 10.6572"
                 y="0"
                 sodipodi:role="line"
                 id="tspan150">P3 </tspan></text>
</g></g><g
           id="g152"><g
             id="g154"
             clip-path="url(#clipPath156)"><text
               transform="matrix(1,0,0,-1,347.35,759.82)"
               id="text160"><tspan
                 style="fill:#000000;fill-opacity:1;fill-rule:nonzero;stroke:none;font-family:Times New Roman;font-variant:normal;font-weight:bold;font-size:9.96;writing-mode:lr;-inkscape-font-specification:'Times New Roman, Bold'"
                 x="0 5.0298 10.56756"
                 y="0"
                 sodipodi:role="line"
                 id="tspan162">and</tspan></text>
</g></g><g
           id="g164"><g
             id="g166"
             clip-path="url(#clipPath168)" /></g><g
           id="g172"><g
             id="g174"
             clip-path="url(#clipPath176)"><text
               transform="matrix(1,0,0,-1,365.83,759.82)"
               id="text180"><tspan
                 style="fill:#000000;fill-opacity:1;fill-rule:nonzero;stroke:none;font-family:Times New Roman;font-variant:normal;font-weight:normal;font-size:9.96;writing-mode:lr;-inkscape-font-specification:Times New"
                 x="0 5.63976"
                 y="0"
                 sodipodi:role="line"
                 id="tspan182">P2</tspan></text>
</g></g><g
           id="g184"><g
             id="g186"
             clip-path="url(#clipPath188)" /></g></g></g><path
       d="m 212.09,768.84 0.72,0 0,2.28 -0.72,0 0,-2.28 z"
       style="fill:#000000;fill-opacity:1;fill-rule:evenodd;stroke:none"
       id="path192" /><path
       d="m 212.09,770.4 2.16,0 0,0.72 -2.16,0 0,-0.72 z"
       style="fill:#000000;fill-opacity:1;fill-rule:evenodd;stroke:none"
       id="path194" /><path
       d="m 213.53,768.84 0.72,0 0,0.84 -0.72,0 0,-0.84 z"
       style="fill:#000000;fill-opacity:1;fill-rule:evenodd;stroke:none"
       id="path196" /><path
       d="m 213.53,768.96 0.72,0 0,0.72 -0.72,0 0,-0.72 z"
       style="fill:#000000;fill-opacity:1;fill-rule:evenodd;stroke:none"
       id="path198" /><path
       d="m 214.25,770.4 54.24,0 0,0.72 -54.24,0 0,-0.72 z"
       style="fill:#000000;fill-opacity:1;fill-rule:evenodd;stroke:none"
       id="path200" /><path
       d="m 214.25,768.96 54.24,0 0,0.72 -54.24,0 0,-0.72 z"
       style="fill:#000000;fill-opacity:1;fill-rule:evenodd;stroke:none"
       id="path202" /><path
       d="m 269.93,768.84 0.72,0 0,0.12 -0.72,0 0,-0.12 z"
       style="fill:#000000;fill-opacity:1;fill-rule:evenodd;stroke:none"
       id="path204" /><path
       d="m 268.49,768.84 0.72,0 0,0.12 -0.72,0 0,-0.12 z"
       style="fill:#000000;fill-opacity:1;fill-rule:evenodd;stroke:none"
       id="path206" /><path
       d="m 268.49,770.4 2.16,0 0,0.72 -2.16,0 0,-0.72 z"
       style="fill:#000000;fill-opacity:1;fill-rule:evenodd;stroke:none"
       id="path208" /><path
       d="m 268.49,768.96 0.72,0 0,0.72 -0.72,0 0,-0.72 z"
       style="fill:#000000;fill-opacity:1;fill-rule:evenodd;stroke:none"
       id="path210" /><path
       d="m 269.93,768.96 0.72,0 0,0.72 -0.72,0 0,-0.72 z"
       style="fill:#000000;fill-opacity:1;fill-rule:evenodd;stroke:none"
       id="path212" /><path
       d="m 270.65,770.4 56.784,0 0,0.72 -56.784,0 0,-0.72 z"
       style="fill:#000000;fill-opacity:1;fill-rule:evenodd;stroke:none"
       id="path214" /><path
       d="m 270.65,768.96 56.784,0 0,0.72 -56.784,0 0,-0.72 z"
       style="fill:#000000;fill-opacity:1;fill-rule:evenodd;stroke:none"
       id="path216" /><path
       d="m 328.87,768.84 0.72,0 0,0.12 -0.72,0 0,-0.12 z"
       style="fill:#000000;fill-opacity:1;fill-rule:evenodd;stroke:none"
       id="path218" /><path
       d="m 327.43,768.84 0.72,0 0,0.12 -0.72,0 0,-0.12 z"
       style="fill:#000000;fill-opacity:1;fill-rule:evenodd;stroke:none"
       id="path220" /><path
       d="m 327.43,770.4 2.16,0 0,0.72 -2.16,0 0,-0.72 z"
       style="fill:#000000;fill-opacity:1;fill-rule:evenodd;stroke:none"
       id="path222" /><path
       d="m 327.43,768.96 0.72,0 0,0.72 -0.72,0 0,-0.72 z"
       style="fill:#000000;fill-opacity:1;fill-rule:evenodd;stroke:none"
       id="path224" /><path
       d="m 328.87,768.96 0.72,0 0,0.72 -0.72,0 0,-0.72 z"
       style="fill:#000000;fill-opacity:1;fill-rule:evenodd;stroke:none"
       id="path226" /><path
       d="m 329.59,770.4 51.72,0 0,0.72 -51.72,0 0,-0.72 z"
       style="fill:#000000;fill-opacity:1;fill-rule:evenodd;stroke:none"
       id="path228" /><path
       d="m 329.59,768.96 51.72,0 0,0.72 -51.72,0 0,-0.72 z"
       style="fill:#000000;fill-opacity:1;fill-rule:evenodd;stroke:none"
       id="path230" /><path
       d="m 382.75,768.84 0.72,0 0,2.28 -0.72,0 0,-2.28 z"
       style="fill:#000000;fill-opacity:1;fill-rule:evenodd;stroke:none"
       id="path232" /><path
       d="m 381.31,770.4 2.16,0 0,0.72 -2.16,0 0,-0.72 z"
       style="fill:#000000;fill-opacity:1;fill-rule:evenodd;stroke:none"
       id="path234" /><path
       d="m 381.31,768.84 0.72,0 0,0.84 -0.72,0 0,-0.84 z"
       style="fill:#000000;fill-opacity:1;fill-rule:evenodd;stroke:none"
       id="path236" /><path
       d="m 381.31,768.96 0.72,0 0,0.72 -0.72,0 0,-0.72 z"
       style="fill:#000000;fill-opacity:1;fill-rule:evenodd;stroke:none"
       id="path238" /><path
       d="m 213.53,757.3 0.72,0 0,11.544 -0.72,0 0,-11.544 z"
       style="fill:#000000;fill-opacity:1;fill-rule:evenodd;stroke:none"
       id="path240" /><path
       d="m 212.09,757.3 0.72,0 0,11.544 -0.72,0 0,-11.544 z"
       style="fill:#000000;fill-opacity:1;fill-rule:evenodd;stroke:none"
       id="path242" /><path
       d="m 269.93,757.3 0.72,0 0,11.544 -0.72,0 0,-11.544 z"
       style="fill:#000000;fill-opacity:1;fill-rule:evenodd;stroke:none"
       id="path244" /><path
       d="m 268.49,757.3 0.72,0 0,11.544 -0.72,0 0,-11.544 z"
       style="fill:#000000;fill-opacity:1;fill-rule:evenodd;stroke:none"
       id="path246" /><path
       d="m 328.87,757.3 0.72,0 0,11.544 -0.72,0 0,-11.544 z"
       style="fill:#000000;fill-opacity:1;fill-rule:evenodd;stroke:none"
       id="path248" /><path
       d="m 327.43,757.3 0.72,0 0,11.544 -0.72,0 0,-11.544 z"
       style="fill:#000000;fill-opacity:1;fill-rule:evenodd;stroke:none"
       id="path250" /><path
       d="m 382.75,757.3 0.72,0 0,11.544 -0.72,0 0,-11.544 z"
       style="fill:#000000;fill-opacity:1;fill-rule:evenodd;stroke:none"
       id="path252" /><path
       d="m 381.31,757.3 0.72,0 0,11.544 -0.72,0 0,-11.544 z"
       style="fill:#000000;fill-opacity:1;fill-rule:evenodd;stroke:none"
       id="path254" /><g
       id="g256"><g
         id="g258"
         clip-path="url(#clipPath260)"><g
           id="g264"><g
             id="g266"
             clip-path="url(#clipPath268)"><text
               transform="matrix(1,0,0,-1,218.45,746.02)"
               id="text272"><tspan
                 style="fill:#000000;fill-opacity:1;fill-rule:nonzero;stroke:none;font-family:Times New Roman;font-variant:normal;font-weight:normal;font-size:9.96;writing-mode:lr;-inkscape-font-specification:Times New"
                 x="0 4.92024 9.95004 13.2966 18.924 23.9538"
                 y="0"
                 sodipodi:role="line"
                 id="tspan274">up(P2)</tspan></text>
</g></g><g
           id="g276"><g
             id="g278"
             clip-path="url(#clipPath280)" /></g></g></g><g
       id="g284"><g
         id="g286"
         clip-path="url(#clipPath288)"><g
           id="g292"><g
             id="g294"
             clip-path="url(#clipPath296)"><text
               transform="matrix(1,0,0,-1,274.85,746.02)"
               id="text300"><tspan
                 style="fill:#000000;fill-opacity:1;fill-rule:nonzero;stroke:none;font-family:Times New Roman;font-variant:normal;font-weight:normal;font-size:9.96;writing-mode:lr;-inkscape-font-specification:Times New"
                 x="0 5.0298 10.17912 17.14116 22.0614 25.40796 31.03536 36.06516"
                 y="0"
                 sodipodi:role="line"
                 id="tspan302">down(P1)</tspan></text>
</g></g><g
           id="g304"><g
             id="g306"
             clip-path="url(#clipPath308)" /></g></g></g><g
       id="g312"><g
         id="g314"
         clip-path="url(#clipPath316)"><g
           id="g320"><g
             id="g322"
             clip-path="url(#clipPath324)"><text
               transform="matrix(1,0,0,-1,333.79,746.02)"
               id="text328"><tspan
                 style="fill:#000000;fill-opacity:1;fill-rule:nonzero;stroke:none;font-family:Times New Roman;font-variant:normal;font-weight:normal;font-size:9.96;writing-mode:lr;-inkscape-font-specification:Times New"
                 x="0 4.92024 9.95004 13.2966 18.924 23.9538"
                 y="0"
                 sodipodi:role="line"
                 id="tspan330">up(P2)</tspan></text>
</g></g><g
           id="g332"><g
             id="g334"
             clip-path="url(#clipPath336)" /></g></g></g><path
       d="m 212.93,755.02 0.48,0 0,0.12 -0.48,0 0,-0.12 z"
       style="fill:#000000;fill-opacity:1;fill-rule:evenodd;stroke:none"
       id="path340" /><path
       d="m 212.09,755.14 0.72,0 0,2.16 -0.72,0 0,-2.16 z"
       style="fill:#000000;fill-opacity:1;fill-rule:evenodd;stroke:none"
       id="path342" /><path
       d="m 212.09,755.14 2.16,0 0,0.72 -2.16,0 0,-0.72 z"
       style="fill:#000000;fill-opacity:1;fill-rule:evenodd;stroke:none"
       id="path344" /><path
       d="m 213.53,756.58 0.72,0 0,0.72 -0.72,0 0,-0.72 z"
       style="fill:#000000;fill-opacity:1;fill-rule:evenodd;stroke:none"
       id="path346" /><path
       d="m 213.53,756.58 0.72,0 0,0.72 -0.72,0 0,-0.72 z"
       style="fill:#000000;fill-opacity:1;fill-rule:evenodd;stroke:none"
       id="path348" /><path
       d="m 214.25,756.58 2.16,0 0,0.72 -2.16,0 0,-0.72 z"
       style="fill:#000000;fill-opacity:1;fill-rule:evenodd;stroke:none"
       id="path350" /><path
       d="m 214.25,755.14 2.16,0 0,0.72 -2.16,0 0,-0.72 z"
       style="fill:#000000;fill-opacity:1;fill-rule:evenodd;stroke:none"
       id="path352" /><path
       d="m 216.41,756.58 52.08,0 0,0.72 -52.08,0 0,-0.72 z"
       style="fill:#000000;fill-opacity:1;fill-rule:evenodd;stroke:none"
       id="path354" /><path
       d="m 216.41,755.14 52.08,0 0,0.72 -52.08,0 0,-0.72 z"
       style="fill:#000000;fill-opacity:1;fill-rule:evenodd;stroke:none"
       id="path356" /><path
       d="m 269.33,755.02 0.48001,0 0,0.12 -0.48001,0 0,-0.12 z"
       style="fill:#000000;fill-opacity:1;fill-rule:evenodd;stroke:none"
       id="path358" /><path
       d="m 268.49,756.58 0.72,0 0,0.72 -0.72,0 0,-0.72 z"
       style="fill:#000000;fill-opacity:1;fill-rule:evenodd;stroke:none"
       id="path360" /><path
       d="m 269.93,756.58 0.72,0 0,0.72 -0.72,0 0,-0.72 z"
       style="fill:#000000;fill-opacity:1;fill-rule:evenodd;stroke:none"
       id="path362" /><path
       d="m 268.49,755.14 2.16,0 0,0.72 -2.16,0 0,-0.72 z"
       style="fill:#000000;fill-opacity:1;fill-rule:evenodd;stroke:none"
       id="path364" /><path
       d="m 270.65,756.58 2.16,0 0,0.72 -2.16,0 0,-0.72 z"
       style="fill:#000000;fill-opacity:1;fill-rule:evenodd;stroke:none"
       id="path366" /><path
       d="m 270.65,755.14 2.16,0 0,0.72 -2.16,0 0,-0.72 z"
       style="fill:#000000;fill-opacity:1;fill-rule:evenodd;stroke:none"
       id="path368" /><path
       d="m 272.81,756.58 54.624,0 0,0.72 -54.624,0 0,-0.72 z"
       style="fill:#000000;fill-opacity:1;fill-rule:evenodd;stroke:none"
       id="path370" /><path
       d="m 272.81,755.14 54.624,0 0,0.72 -54.624,0 0,-0.72 z"
       style="fill:#000000;fill-opacity:1;fill-rule:evenodd;stroke:none"
       id="path372" /><path
       d="m 328.27,755.02 0.48001,0 0,0.12 -0.48001,0 0,-0.12 z"
       style="fill:#000000;fill-opacity:1;fill-rule:evenodd;stroke:none"
       id="path374" /><path
       d="m 327.43,756.58 0.72,0 0,0.72 -0.72,0 0,-0.72 z"
       style="fill:#000000;fill-opacity:1;fill-rule:evenodd;stroke:none"
       id="path376" /><path
       d="m 328.87,756.58 0.72,0 0,0.72 -0.72,0 0,-0.72 z"
       style="fill:#000000;fill-opacity:1;fill-rule:evenodd;stroke:none"
       id="path378" /><path
       d="m 327.43,755.14 2.16,0 0,0.72 -2.16,0 0,-0.72 z"
       style="fill:#000000;fill-opacity:1;fill-rule:evenodd;stroke:none"
       id="path380" /><path
       d="m 329.59,756.58 2.16,0 0,0.72 -2.16,0 0,-0.72 z"
       style="fill:#000000;fill-opacity:1;fill-rule:evenodd;stroke:none"
       id="path382" /><path
       d="m 329.59,755.14 2.16,0 0,0.72 -2.16,0 0,-0.72 z"
       style="fill:#000000;fill-opacity:1;fill-rule:evenodd;stroke:none"
       id="path384" /><path
       d="m 331.75,756.58 49.56,0 0,0.72 -49.56,0 0,-0.72 z"
       style="fill:#000000;fill-opacity:1;fill-rule:evenodd;stroke:none"
       id="path386" /><path
       d="m 331.75,755.14 49.56,0 0,0.72 -49.56,0 0,-0.72 z"
       style="fill:#000000;fill-opacity:1;fill-rule:evenodd;stroke:none"
       id="path388" /><path
       d="m 382.15,755.02 0.47998,0 0,0.12 -0.47998,0 0,-0.12 z"
       style="fill:#000000;fill-opacity:1;fill-rule:evenodd;stroke:none"
       id="path390" /><path
       d="m 381.31,756.58 0.72,0 0,0.72 -0.72,0 0,-0.72 z"
       style="fill:#000000;fill-opacity:1;fill-rule:evenodd;stroke:none"
       id="path392" /><path
       d="m 382.75,755.2793 0.72,0 0,2.0207 -0.72,0 0,-2.0207 z"
       style="fill:#000000;fill-opacity:1;fill-rule:evenodd;stroke:none"
       id="path394"
       inkscape:connector-curvature="0" /><path
       d="m 381.31,755.14 2.16,0 0,0.72 -2.16,0 0,-0.72 z"
       style="fill:#000000;fill-opacity:1;fill-rule:evenodd;stroke:none"
       id="path396" /><path
       d="m 212.93,743.5 0.48,0 0,11.52 -0.48,0 0,-11.52 z"
       style="fill:#000000;fill-opacity:1;fill-rule:evenodd;stroke:none"
       id="path398" /><path
       d="m 269.33,743.5 0.48001,0 0,11.52 -0.48001,0 0,-11.52 z"
       style="fill:#000000;fill-opacity:1;fill-rule:evenodd;stroke:none"
       id="path400" /><path
       d="m 328.27,743.5 0.48001,0 0,11.52 -0.48001,0 0,-11.52 z"
       style="fill:#000000;fill-opacity:1;fill-rule:evenodd;stroke:none"
       id="path402" /><path
       d="m 382.15,743.5 0.47998,0 0,11.52 -0.47998,0 0,-11.52 z"
       style="fill:#000000;fill-opacity:1;fill-rule:evenodd;stroke:none"
       id="path404" /><g
       id="g406"><g
         id="g408"
         clip-path="url(#clipPath410)"><g
           id="g414"><g
             id="g416"
             clip-path="url(#clipPath418)"><text
               transform="matrix(1,0,0,-1,218.45,734.02)"
               id="text422"><tspan
                 style="fill:#000000;fill-opacity:1;fill-rule:nonzero;stroke:none;font-family:Times New Roman;font-variant:normal;font-weight:normal;font-size:9.96;writing-mode:lr;-inkscape-font-specification:Times New"
                 x="0 5.0298 10.17912 17.14116 22.0614 25.40796 31.03536 36.06516"
                 y="0"
                 sodipodi:role="line"
                 id="tspan424">down(P3)</tspan></text>
</g></g><g
           id="g426"><g
             id="g428"
             clip-path="url(#clipPath430)" /></g></g></g><g
       id="g434"><g
         id="g436"
         clip-path="url(#clipPath438)"><g
           id="g442"><g
             id="g444"
             clip-path="url(#clipPath446)"><text
               transform="matrix(1,0,0,-1,274.85,734.02)"
               id="text450"><tspan
                 style="fill:#000000;fill-opacity:1;fill-rule:nonzero;stroke:none;font-family:Times New Roman;font-variant:normal;font-weight:normal;font-size:9.96;writing-mode:lr;-inkscape-font-specification:Times New"
                 x="0 3.84456 8.2668 13.20696 18.23676 21.58332 27.21072 32.24052 34.75044 44.71044"
                 y="0"
                 sodipodi:role="line"
                 id="tspan452">send(P2,→)</tspan></text>
</g></g><g
           id="g454"><g
             id="g456"
             clip-path="url(#clipPath458)" /></g></g></g><g
       id="g462"><g
         id="g464"
         clip-path="url(#clipPath466)"><g
           id="g470"><g
             id="g472"
             clip-path="url(#clipPath474)"><text
               transform="matrix(1,0,0,-1,333.79,734.02)"
               id="text478"><tspan
                 style="fill:#000000;fill-opacity:1;fill-rule:nonzero;stroke:none;font-family:Times New Roman;font-variant:normal;font-weight:normal;font-size:9.96;writing-mode:lr;-inkscape-font-specification:Times New"
                 x="0 5.0298 10.17912 17.14116 22.0614 25.40796 31.03536 36.06516"
                 y="0"
                 sodipodi:role="line"
                 id="tspan480">down(P1)</tspan></text>
</g></g><g
           id="g482"><g
             id="g484"
             clip-path="url(#clipPath486)" /></g></g></g><path
       d="m 212.93,743.02 0.48,0 0,0.48 -0.48,0 0,-0.48 z"
       style="fill:#000000;fill-opacity:1;fill-rule:evenodd;stroke:none"
       id="path490" /><path
       d="m 213.41,743.02 55.92,0 0,0.48 -55.92,0 0,-0.48 z"
       style="fill:#000000;fill-opacity:1;fill-rule:evenodd;stroke:none"
       id="path492" /><path
       d="m 269.33,743.02 0.48001,0 0,0.48 -0.48001,0 0,-0.48 z"
       style="fill:#000000;fill-opacity:1;fill-rule:evenodd;stroke:none"
       id="path494" /><path
       d="m 269.81,743.02 58.464,0 0,0.48 -58.464,0 0,-0.48 z"
       style="fill:#000000;fill-opacity:1;fill-rule:evenodd;stroke:none"
       id="path496" /><path
       d="m 328.27,743.02 0.48001,0 0,0.48 -0.48001,0 0,-0.48 z"
       style="fill:#000000;fill-opacity:1;fill-rule:evenodd;stroke:none"
       id="path498" /><path
       d="m 328.75,743.02 53.4,0 0,0.48 -53.4,0 0,-0.48 z"
       style="fill:#000000;fill-opacity:1;fill-rule:evenodd;stroke:none"
       id="path500" /><path
       d="m 382.15,743.02 0.47998,0 0,0.48 -0.47998,0 0,-0.48 z"
       style="fill:#000000;fill-opacity:1;fill-rule:evenodd;stroke:none"
       id="path502" /><path
       d="m 212.93,731.5 0.48,0 0,11.52 -0.48,0 0,-11.52 z"
       style="fill:#000000;fill-opacity:1;fill-rule:evenodd;stroke:none"
       id="path504" /><path
       d="m 269.33,731.5 0.48001,0 0,11.52 -0.48001,0 0,-11.52 z"
       style="fill:#000000;fill-opacity:1;fill-rule:evenodd;stroke:none"
       id="path506" /><path
       d="m 328.27,731.5 0.48001,0 0,11.52 -0.48001,0 0,-11.52 z"
       style="fill:#000000;fill-opacity:1;fill-rule:evenodd;stroke:none"
       id="path508" /><path
       d="m 382.15,731.5 0.47998,0 0,11.52 -0.47998,0 0,-11.52 z"
       style="fill:#000000;fill-opacity:1;fill-rule:evenodd;stroke:none"
       id="path510" /><g
       id="g512"><g
         id="g514"
         clip-path="url(#clipPath516)"><g
           id="g520"><g
             id="g522"
             clip-path="url(#clipPath524)"><text
               transform="matrix(1,0,0,-1,218.45,722.02)"
               id="text528"><tspan
                 style="fill:#000000;fill-opacity:1;fill-rule:nonzero;stroke:none;font-family:Times New Roman;font-variant:normal;font-weight:normal;font-size:9.96;writing-mode:lr;-inkscape-font-specification:Times New"
                 x="0 3.84456 8.2668 13.20696"
                 y="0"
                 sodipodi:role="line"
                 id="tspan530">send</tspan></text>
</g></g><g
           id="g532"><g
             id="g534"
             clip-path="url(#clipPath536)"><text
               transform="matrix(1,0,0,-1,236.69,722.02)"
               id="text540"><tspan
                 style="fill:#000000;fill-opacity:1;fill-rule:nonzero;stroke:none;font-family:Times New Roman;font-variant:normal;font-weight:normal;font-size:9.96;writing-mode:lr;-inkscape-font-specification:Times New"
                 x="0 3.34656 8.97396 14.00376 16.51368 21.3144"
                 y="0"
                 sodipodi:role="line"
                 id="tspan542">(P3,↑)</tspan></text>
</g></g><g
           id="g544"><g
             id="g546"
             clip-path="url(#clipPath548)" /></g></g></g><g
       id="g552"><g
         id="g554"
         clip-path="url(#clipPath556)"><g
           id="g560"><g
             id="g562"
             clip-path="url(#clipPath564)" /></g></g></g><g
       id="g568"><g
         id="g570"
         clip-path="url(#clipPath572)"><g
           id="g576"><g
             id="g578"
             clip-path="url(#clipPath580)"><text
               transform="matrix(1,0,0,-1,333.79,722.02)"
               id="text584"><tspan
                 style="fill:#000000;fill-opacity:1;fill-rule:nonzero;stroke:none;font-family:Times New Roman;font-variant:normal;font-weight:normal;font-size:9.96;writing-mode:lr;-inkscape-font-specification:Times New"
                 x="0 3.84456 8.2668 13.20696 18.23676 21.58332 27.21072 32.24052 34.75044 39.55116"
                 y="0"
                 sodipodi:role="line"
                 id="tspan586">send(P1,↓)</tspan></text>
</g></g><g
           id="g588"><g
             id="g590"
             clip-path="url(#clipPath592)" /></g></g></g><path
       d="m 212.93,731.02 0.48,0 0,0.48 -0.48,0 0,-0.48 z"
       style="fill:#000000;fill-opacity:1;fill-rule:evenodd;stroke:none"
       id="path596" /><path
       d="m 213.41,731.02 55.92,0 0,0.48 -55.92,0 0,-0.48 z"
       style="fill:#000000;fill-opacity:1;fill-rule:evenodd;stroke:none"
       id="path598" /><path
       d="m 269.33,731.02 0.48001,0 0,0.48 -0.48001,0 0,-0.48 z"
       style="fill:#000000;fill-opacity:1;fill-rule:evenodd;stroke:none"
       id="path600" /><path
       d="m 269.81,731.02 58.464,0 0,0.48 -58.464,0 0,-0.48 z"
       style="fill:#000000;fill-opacity:1;fill-rule:evenodd;stroke:none"
       id="path602" /><path
       d="m 328.27,731.02 0.48001,0 0,0.48 -0.48001,0 0,-0.48 z"
       style="fill:#000000;fill-opacity:1;fill-rule:evenodd;stroke:none"
       id="path604" /><path
       d="m 328.75,731.02 53.4,0 0,0.48 -53.4,0 0,-0.48 z"
       style="fill:#000000;fill-opacity:1;fill-rule:evenodd;stroke:none"
       id="path606" /><path
       d="m 382.15,731.02 0.47998,0 0,0.48 -0.47998,0 0,-0.48 z"
       style="fill:#000000;fill-opacity:1;fill-rule:evenodd;stroke:none"
       id="path608" /><path
       d="m 212.93,719.5 0.48,0 0,11.52 -0.48,0 0,-11.52 z"
       style="fill:#000000;fill-opacity:1;fill-rule:evenodd;stroke:none"
       id="path610" /><path
       d="m 269.33,719.5 0.48001,0 0,11.52 -0.48001,0 0,-11.52 z"
       style="fill:#000000;fill-opacity:1;fill-rule:evenodd;stroke:none"
       id="path612" /><path
       d="m 328.27,719.5 0.48001,0 0,11.52 -0.48001,0 0,-11.52 z"
       style="fill:#000000;fill-opacity:1;fill-rule:evenodd;stroke:none"
       id="path614" /><path
       d="m 382.15,719.5 0.47998,0 0,11.52 -0.47998,0 0,-11.52 z"
       style="fill:#000000;fill-opacity:1;fill-rule:evenodd;stroke:none"
       id="path616" /><g
       id="g618"><g
         id="g620"
         clip-path="url(#clipPath622)"><g
           id="g626"><g
             id="g628"
             clip-path="url(#clipPath630)"><text
               transform="matrix(1,0,0,-1,218.45,710.02)"
               id="text634"><tspan
                 style="fill:#000000;fill-opacity:1;fill-rule:nonzero;stroke:none;font-family:Times New Roman;font-variant:normal;font-weight:normal;font-size:9.96;writing-mode:lr;-inkscape-font-specification:Times New"
                 x="0 5.0298 10.17912 17.14116 22.0614 25.40796 31.03536 36.06516"
                 y="0"
                 sodipodi:role="line"
                 id="tspan636">down(P1)</tspan></text>
</g></g><g
           id="g638"><g
             id="g640"
             clip-path="url(#clipPath642)" /></g></g></g><g
       id="g646"><g
         id="g648"
         clip-path="url(#clipPath650)"><g
           id="g654"><g
             id="g656"
             clip-path="url(#clipPath658)" /></g></g></g><g
       id="g662"><g
         id="g664"
         clip-path="url(#clipPath666)"><g
           id="g670"><g
             id="g672"
             clip-path="url(#clipPath674)" /></g></g></g><path
       d="m 212.93,719.02 0.48,0 0,0.48 -0.48,0 0,-0.48 z"
       style="fill:#000000;fill-opacity:1;fill-rule:evenodd;stroke:none"
       id="path678" /><path
       d="m 213.41,719.02 55.92,0 0,0.48 -55.92,0 0,-0.48 z"
       style="fill:#000000;fill-opacity:1;fill-rule:evenodd;stroke:none"
       id="path680" /><path
       d="m 269.33,719.02 0.48001,0 0,0.48 -0.48001,0 0,-0.48 z"
       style="fill:#000000;fill-opacity:1;fill-rule:evenodd;stroke:none"
       id="path682" /><path
       d="m 328.27,719.02 0.48001,0 0,0.48 -0.48001,0 0,-0.48 z"
       style="fill:#000000;fill-opacity:1;fill-rule:evenodd;stroke:none"
       id="path684" /><path
       d="m 328.27,719.02 0.48001,0 0,0.48 -0.48001,0 0,-0.48 z"
       style="fill:#000000;fill-opacity:1;fill-rule:evenodd;stroke:none"
       id="path686" /><path
       d="m 328.75,719.02 0.47998,0 0,0.48 -0.47998,0 0,-0.48 z"
       style="fill:#000000;fill-opacity:1;fill-rule:evenodd;stroke:none"
       id="path688" /><path
       d="m 329.23,719.02 52.92,0 0,0.48 -52.92,0 0,-0.48 z"
       style="fill:#000000;fill-opacity:1;fill-rule:evenodd;stroke:none"
       id="path690" /><path
       d="m 382.15,719.02 0.47998,0 0,0.48 -0.47998,0 0,-0.48 z"
       style="fill:#000000;fill-opacity:1;fill-rule:evenodd;stroke:none"
       id="path692" /><path
       d="m 212.93,707.5 0.48,0 0,11.52 -0.48,0 0,-11.52 z"
       style="fill:#000000;fill-opacity:1;fill-rule:evenodd;stroke:none"
       id="path694" /><path
       d="m 212.93,707.02 0.48,0 0,0.48001 -0.48,0 0,-0.48001 z"
       style="fill:#000000;fill-opacity:1;fill-rule:evenodd;stroke:none"
       id="path696" /><path
       d="m 212.93,707.02 0.48,0 0,0.48001 -0.48,0 0,-0.48001 z"
       style="fill:#000000;fill-opacity:1;fill-rule:evenodd;stroke:none"
       id="path698" /><path
       d="m 213.41,707.02 55.92,0 0,0.48001 -55.92,0 0,-0.48001 z"
       style="fill:#000000;fill-opacity:1;fill-rule:evenodd;stroke:none"
       id="path700" /><path
       d="m 269.33,707.5 0.48001,0 0,11.52 -0.48001,0 0,-11.52 z"
       style="fill:#000000;fill-opacity:1;fill-rule:evenodd;stroke:none"
       id="path702" /><path
       d="m 269.33,707.02 0.48001,0 0,0.48001 -0.48001,0 0,-0.48001 z"
       style="fill:#000000;fill-opacity:1;fill-rule:evenodd;stroke:none"
       id="path704" /><path
       d="m 269.33,707.02 0.48001,0 0,0.48001 -0.48001,0 0,-0.48001 z"
       style="fill:#000000;fill-opacity:1;fill-rule:evenodd;stroke:none"
       id="path706" /></g></svg>