<?xml version="1.0" encoding="utf-8"?>


<!-- The icon can be used freely in both personal and commercial projects with no attribution required, but always appreciated. 
You may NOT sub-license, resell, rent, redistribute or otherwise transfer the icon without express written permission from iconmonstr.com -->


<!DOCTYPE svg PUBLIC "-//W3C//DTD SVG 1.1//EN" "http://www.w3.org/Graphics/SVG/1.1/DTD/svg11.dtd">

<svg version="1.1" xmlns="http://www.w3.org/2000/svg" xmlns:xlink="http://www.w3.org/1999/xlink" x="0px" y="0px"

	 width="512px" height="512px" viewBox="0 0 512 512" enable-background="new 0 0 512 512" xml:space="preserve">

<path id="danger-8-icon" d="M292.027,397.099c19.051-4.771,48.279-46.982,43.314-88.535c-5.594,15.223-31.389,29.766-38.227,27.434

	c13.053-19.57,27.744-63.416,10.537-89.912c-5.668,19-19,33.666-30.664,33.646c14.277-24.018,16.881-95.121-58.145-109.102

	c33.086,48.93-50.191,107.789,14.457,167.303c-17.648-0.182-35.316-14.848-44.316-31.514c-15.666,40.666,14.748,79.816,29.408,90.68

	c-71.408-7.68-111.908-96.182-96.812-165.705c6.072,37.025,38.072,47.689,51.598,48.279

	c-86.193-104.256,56.23-148.805,23.918-229.424c54.059,5.438,116.389,62.168,98.889,123.668c16.5-4.5,32-21,35.451-45.896

	c34.795,48.463,31.863,106.254,15.553,143.535c15.496-0.139,38.996-21.139,43.996-42.471

	C408.098,331.31,335.924,397.099,292.027,397.099z M341.984,421.751h-180v40h180V421.751z"/>

</svg>

