<?xml version="1.0" encoding="UTF-8" standalone="no"?>
<svg
   xmlns:dc="http://purl.org/dc/elements/1.1/"
   xmlns:cc="http://creativecommons.org/ns#"
   xmlns:rdf="http://www.w3.org/1999/02/22-rdf-syntax-ns#"
   xmlns:svg="http://www.w3.org/2000/svg"
   xmlns="http://www.w3.org/2000/svg"
   xmlns:sodipodi="http://sodipodi.sourceforge.net/DTD/sodipodi-0.dtd"
   xmlns:inkscape="http://www.inkscape.org/namespaces/inkscape"
   width="271.639mm"
   height="271.639mm"
   viewBox="0 0 770 770"
   version="1.2"
   id="svg2"
   inkscape:version="0.48.4 r"
   sodipodi:docname="random-topology-25.svg">
  <metadata
     id="metadata362">
    <rdf:RDF>
      <cc:Work
         rdf:about="">
        <dc:format>image/svg+xml</dc:format>
        <dc:type
           rdf:resource="http://purl.org/dc/dcmitype/StillImage" />
      </cc:Work>
    </rdf:RDF>
  </metadata>
  <sodipodi:namedview
     pagecolor="#ffffff"
     bordercolor="#666666"
     borderopacity="1"
     objecttolerance="10"
     gridtolerance="10"
     guidetolerance="10"
     inkscape:pageopacity="0"
     inkscape:pageshadow="2"
     inkscape:window-width="1920"
     inkscape:window-height="828"
     id="namedview360"
     showgrid="false"
     inkscape:zoom="0.49038939"
     inkscape:cx="286.40762"
     inkscape:cy="440.96173"
     inkscape:window-x="-8"
     inkscape:window-y="192"
     inkscape:window-maximized="1"
     inkscape:current-layer="svg2" />
  <title
     id="title4">Network Instance Exported SVG</title>
  <desc
     id="desc6">The network instance image as SVG for inclusion in academic works (papers and thesis).</desc>
  <defs
     id="defs8" />
  <g
     fill="none"
     stroke="black"
     stroke-width="1"
     fill-rule="evenodd"
     stroke-linecap="square"
     stroke-linejoin="bevel"
     id="g10">
    <g
       fill="none"
       stroke="#000000"
       stroke-opacity="1"
       stroke-width="1"
       stroke-linecap="square"
       stroke-linejoin="bevel"
       transform="matrix(1,0,0,1,0,0)"
       font-family="Sans Serif"
       font-size="9"
       font-weight="400"
       font-style="normal"
       id="g12" />
    <g
       fill="#a0a0a4"
       fill-opacity="1"
       stroke="#000000"
       stroke-opacity="1"
       stroke-width="2"
       stroke-linecap="square"
       stroke-linejoin="bevel"
       transform="matrix(1,0,0,1,0,0)"
       font-family="Sans Serif"
       font-size="9"
       font-weight="400"
       font-style="normal"
       id="g14" />
    <g
       fill="#a0a0a4"
       fill-opacity="1"
       stroke="#000000"
       stroke-opacity="1"
       stroke-width="2"
       stroke-linecap="square"
       stroke-linejoin="bevel"
       transform="matrix(1,0,0,1,750,119.458)"
       font-family="Sans Serif"
       font-size="9"
       font-weight="400"
       font-style="normal"
       id="g16">
      <path
         vector-effect="none"
         fill-rule="evenodd"
         d="M10,5 C10,7.76142 7.76142,10 5,10 C2.23858,10 0,7.76142 0,5 C0,2.23858 2.23858,0 5,0 C7.76142,0 10,2.23858 10,5 "
         id="path18" />
    </g>
    <g
       fill="#a0a0a4"
       fill-opacity="1"
       stroke="#000000"
       stroke-opacity="1"
       stroke-width="2"
       stroke-linecap="square"
       stroke-linejoin="bevel"
       transform="matrix(1,0,0,1,0,0)"
       font-family="Sans Serif"
       font-size="9"
       font-weight="400"
       font-style="normal"
       id="g20" />
    <g
       fill="#a0a0a4"
       fill-opacity="1"
       stroke="#000000"
       stroke-opacity="1"
       stroke-width="2"
       stroke-linecap="square"
       stroke-linejoin="bevel"
       transform="matrix(1,0,0,1,553.348,199.856)"
       font-family="Sans Serif"
       font-size="9"
       font-weight="400"
       font-style="normal"
       id="g22">
      <path
         vector-effect="none"
         fill-rule="evenodd"
         d="M10,5 C10,7.76142 7.76142,10 5,10 C2.23858,10 0,7.76142 0,5 C0,2.23858 2.23858,0 5,0 C7.76142,0 10,2.23858 10,5 "
         id="path24" />
    </g>
    <g
       fill="#a0a0a4"
       fill-opacity="1"
       stroke="#000000"
       stroke-opacity="1"
       stroke-width="2"
       stroke-linecap="square"
       stroke-linejoin="bevel"
       transform="matrix(1,0,0,1,0,0)"
       font-family="Sans Serif"
       font-size="9"
       font-weight="400"
       font-style="normal"
       id="g26" />
    <g
       fill="#a0a0a4"
       fill-opacity="1"
       stroke="#000000"
       stroke-opacity="1"
       stroke-width="2"
       stroke-linecap="square"
       stroke-linejoin="bevel"
       transform="matrix(1,0,0,1,44.8599,440.267)"
       font-family="Sans Serif"
       font-size="9"
       font-weight="400"
       font-style="normal"
       id="g28">
      <path
         vector-effect="none"
         fill-rule="evenodd"
         d="M10,5 C10,7.76142 7.76142,10 5,10 C2.23858,10 0,7.76142 0,5 C0,2.23858 2.23858,0 5,0 C7.76142,0 10,2.23858 10,5 "
         id="path30" />
    </g>
    <g
       fill="#a0a0a4"
       fill-opacity="1"
       stroke="#000000"
       stroke-opacity="1"
       stroke-width="2"
       stroke-linecap="square"
       stroke-linejoin="bevel"
       transform="matrix(1,0,0,1,0,0)"
       font-family="Sans Serif"
       font-size="9"
       font-weight="400"
       font-style="normal"
       id="g32" />
    <g
       fill="#a0a0a4"
       fill-opacity="1"
       stroke="#000000"
       stroke-opacity="1"
       stroke-width="2"
       stroke-linecap="square"
       stroke-linejoin="bevel"
       transform="matrix(1,0,0,1,483.223,353.944)"
       font-family="Sans Serif"
       font-size="9"
       font-weight="400"
       font-style="normal"
       id="g34">
      <path
         vector-effect="none"
         fill-rule="evenodd"
         d="M10,5 C10,7.76142 7.76142,10 5,10 C2.23858,10 0,7.76142 0,5 C0,2.23858 2.23858,0 5,0 C7.76142,0 10,2.23858 10,5 "
         id="path36" />
    </g>
    <g
       fill="#a0a0a4"
       fill-opacity="1"
       stroke="#000000"
       stroke-opacity="1"
       stroke-width="2"
       stroke-linecap="square"
       stroke-linejoin="bevel"
       transform="matrix(1,0,0,1,0,0)"
       font-family="Sans Serif"
       font-size="9"
       font-weight="400"
       font-style="normal"
       id="g38" />
    <g
       fill="#a0a0a4"
       fill-opacity="1"
       stroke="#000000"
       stroke-opacity="1"
       stroke-width="2"
       stroke-linecap="square"
       stroke-linejoin="bevel"
       transform="matrix(1,0,0,1,646.353,46.986)"
       font-family="Sans Serif"
       font-size="9"
       font-weight="400"
       font-style="normal"
       id="g40">
      <path
         vector-effect="none"
         fill-rule="evenodd"
         d="M10,5 C10,7.76142 7.76142,10 5,10 C2.23858,10 0,7.76142 0,5 C0,2.23858 2.23858,0 5,0 C7.76142,0 10,2.23858 10,5 "
         id="path42" />
    </g>
    <g
       fill="#a0a0a4"
       fill-opacity="1"
       stroke="#000000"
       stroke-opacity="1"
       stroke-width="2"
       stroke-linecap="square"
       stroke-linejoin="bevel"
       transform="matrix(1,0,0,1,0,0)"
       font-family="Sans Serif"
       font-size="9"
       font-weight="400"
       font-style="normal"
       id="g44" />
    <g
       fill="#a0a0a4"
       fill-opacity="1"
       stroke="#000000"
       stroke-opacity="1"
       stroke-width="2"
       stroke-linecap="square"
       stroke-linejoin="bevel"
       transform="matrix(1,0,0,1,107.151,446.668)"
       font-family="Sans Serif"
       font-size="9"
       font-weight="400"
       font-style="normal"
       id="g46">
      <path
         vector-effect="none"
         fill-rule="evenodd"
         d="M10,5 C10,7.76142 7.76142,10 5,10 C2.23858,10 0,7.76142 0,5 C0,2.23858 2.23858,0 5,0 C7.76142,0 10,2.23858 10,5 "
         id="path48" />
    </g>
    <g
       fill="#a0a0a4"
       fill-opacity="1"
       stroke="#000000"
       stroke-opacity="1"
       stroke-width="2"
       stroke-linecap="square"
       stroke-linejoin="bevel"
       transform="matrix(1,0,0,1,0,0)"
       font-family="Sans Serif"
       font-size="9"
       font-weight="400"
       font-style="normal"
       id="g50" />
    <g
       fill="#a0a0a4"
       fill-opacity="1"
       stroke="#000000"
       stroke-opacity="1"
       stroke-width="2"
       stroke-linecap="square"
       stroke-linejoin="bevel"
       transform="matrix(1,0,0,1,193.967,483.382)"
       font-family="Sans Serif"
       font-size="9"
       font-weight="400"
       font-style="normal"
       id="g52">
      <path
         vector-effect="none"
         fill-rule="evenodd"
         d="M10,5 C10,7.76142 7.76142,10 5,10 C2.23858,10 0,7.76142 0,5 C0,2.23858 2.23858,0 5,0 C7.76142,0 10,2.23858 10,5 "
         id="path54" />
    </g>
    <g
       fill="#a0a0a4"
       fill-opacity="1"
       stroke="#000000"
       stroke-opacity="1"
       stroke-width="2"
       stroke-linecap="square"
       stroke-linejoin="bevel"
       transform="matrix(1,0,0,1,0,0)"
       font-family="Sans Serif"
       font-size="9"
       font-weight="400"
       font-style="normal"
       id="g56" />
    <g
       fill="#a0a0a4"
       fill-opacity="1"
       stroke="#000000"
       stroke-opacity="1"
       stroke-width="2"
       stroke-linecap="square"
       stroke-linejoin="bevel"
       transform="matrix(1,0,0,1,605.838,95.5663)"
       font-family="Sans Serif"
       font-size="9"
       font-weight="400"
       font-style="normal"
       id="g58">
      <path
         vector-effect="none"
         fill-rule="evenodd"
         d="M10,5 C10,7.76142 7.76142,10 5,10 C2.23858,10 0,7.76142 0,5 C0,2.23858 2.23858,0 5,0 C7.76142,0 10,2.23858 10,5 "
         id="path60" />
    </g>
    <g
       fill="#a0a0a4"
       fill-opacity="1"
       stroke="#000000"
       stroke-opacity="1"
       stroke-width="2"
       stroke-linecap="square"
       stroke-linejoin="bevel"
       transform="matrix(1,0,0,1,0,0)"
       font-family="Sans Serif"
       font-size="9"
       font-weight="400"
       font-style="normal"
       id="g62" />
    <g
       fill="#a0a0a4"
       fill-opacity="1"
       stroke="#000000"
       stroke-opacity="1"
       stroke-width="2"
       stroke-linecap="square"
       stroke-linejoin="bevel"
       transform="matrix(1,0,0,1,679.122,352.166)"
       font-family="Sans Serif"
       font-size="9"
       font-weight="400"
       font-style="normal"
       id="g64">
      <path
         vector-effect="none"
         fill-rule="evenodd"
         d="M10,5 C10,7.76142 7.76142,10 5,10 C2.23858,10 0,7.76142 0,5 C0,2.23858 2.23858,0 5,0 C7.76142,0 10,2.23858 10,5 "
         id="path66" />
    </g>
    <g
       fill="#a0a0a4"
       fill-opacity="1"
       stroke="#000000"
       stroke-opacity="1"
       stroke-width="2"
       stroke-linecap="square"
       stroke-linejoin="bevel"
       transform="matrix(1,0,0,1,0,0)"
       font-family="Sans Serif"
       font-size="9"
       font-weight="400"
       font-style="normal"
       id="g68" />
    <g
       fill="#a0a0a4"
       fill-opacity="1"
       stroke="#000000"
       stroke-opacity="1"
       stroke-width="2"
       stroke-linecap="square"
       stroke-linejoin="bevel"
       transform="matrix(1,0,0,1,634.424,61.879)"
       font-family="Sans Serif"
       font-size="9"
       font-weight="400"
       font-style="normal"
       id="g70">
      <path
         vector-effect="none"
         fill-rule="evenodd"
         d="M10,5 C10,7.76142 7.76142,10 5,10 C2.23858,10 0,7.76142 0,5 C0,2.23858 2.23858,0 5,0 C7.76142,0 10,2.23858 10,5 "
         id="path72" />
    </g>
    <g
       fill="#a0a0a4"
       fill-opacity="1"
       stroke="#000000"
       stroke-opacity="1"
       stroke-width="2"
       stroke-linecap="square"
       stroke-linejoin="bevel"
       transform="matrix(1,0,0,1,0,0)"
       font-family="Sans Serif"
       font-size="9"
       font-weight="400"
       font-style="normal"
       id="g74" />
    <g
       fill="#a0a0a4"
       fill-opacity="1"
       stroke="#000000"
       stroke-opacity="1"
       stroke-width="2"
       stroke-linecap="square"
       stroke-linejoin="bevel"
       transform="matrix(1,0,0,1,645.319,638.373)"
       font-family="Sans Serif"
       font-size="9"
       font-weight="400"
       font-style="normal"
       id="g76">
      <path
         vector-effect="none"
         fill-rule="evenodd"
         d="M10,5 C10,7.76142 7.76142,10 5,10 C2.23858,10 0,7.76142 0,5 C0,2.23858 2.23858,0 5,0 C7.76142,0 10,2.23858 10,5 "
         id="path78" />
    </g>
    <g
       fill="#a0a0a4"
       fill-opacity="1"
       stroke="#000000"
       stroke-opacity="1"
       stroke-width="2"
       stroke-linecap="square"
       stroke-linejoin="bevel"
       transform="matrix(1,0,0,1,0,0)"
       font-family="Sans Serif"
       font-size="9"
       font-weight="400"
       font-style="normal"
       id="g80" />
    <g
       fill="#a0a0a4"
       fill-opacity="1"
       stroke="#000000"
       stroke-opacity="1"
       stroke-width="2"
       stroke-linecap="square"
       stroke-linejoin="bevel"
       transform="matrix(1,0,0,1,606.689,487.349)"
       font-family="Sans Serif"
       font-size="9"
       font-weight="400"
       font-style="normal"
       id="g82">
      <path
         vector-effect="none"
         fill-rule="evenodd"
         d="M10,5 C10,7.76142 7.76142,10 5,10 C2.23858,10 0,7.76142 0,5 C0,2.23858 2.23858,0 5,0 C7.76142,0 10,2.23858 10,5 "
         id="path84" />
    </g>
    <g
       fill="#a0a0a4"
       fill-opacity="1"
       stroke="#000000"
       stroke-opacity="1"
       stroke-width="2"
       stroke-linecap="square"
       stroke-linejoin="bevel"
       transform="matrix(1,0,0,1,0,0)"
       font-family="Sans Serif"
       font-size="9"
       font-weight="400"
       font-style="normal"
       id="g86" />
    <g
       fill="#a0a0a4"
       fill-opacity="1"
       stroke="#000000"
       stroke-opacity="1"
       stroke-width="2"
       stroke-linecap="square"
       stroke-linejoin="bevel"
       transform="matrix(1,0,0,1,373.291,416.903)"
       font-family="Sans Serif"
       font-size="9"
       font-weight="400"
       font-style="normal"
       id="g88">
      <path
         vector-effect="none"
         fill-rule="evenodd"
         d="M10,5 C10,7.76142 7.76142,10 5,10 C2.23858,10 0,7.76142 0,5 C0,2.23858 2.23858,0 5,0 C7.76142,0 10,2.23858 10,5 "
         id="path90" />
    </g>
    <g
       fill="#a0a0a4"
       fill-opacity="1"
       stroke="#000000"
       stroke-opacity="1"
       stroke-width="2"
       stroke-linecap="square"
       stroke-linejoin="bevel"
       transform="matrix(1,0,0,1,0,0)"
       font-family="Sans Serif"
       font-size="9"
       font-weight="400"
       font-style="normal"
       id="g92" />
    <g
       fill="#a0a0a4"
       fill-opacity="1"
       stroke="#000000"
       stroke-opacity="1"
       stroke-width="2"
       stroke-linecap="square"
       stroke-linejoin="bevel"
       transform="matrix(1,0,0,1,655.734,666.146)"
       font-family="Sans Serif"
       font-size="9"
       font-weight="400"
       font-style="normal"
       id="g94">
      <path
         vector-effect="none"
         fill-rule="evenodd"
         d="M10,5 C10,7.76142 7.76142,10 5,10 C2.23858,10 0,7.76142 0,5 C0,2.23858 2.23858,0 5,0 C7.76142,0 10,2.23858 10,5 "
         id="path96" />
    </g>
    <g
       fill="#a0a0a4"
       fill-opacity="1"
       stroke="#000000"
       stroke-opacity="1"
       stroke-width="2"
       stroke-linecap="square"
       stroke-linejoin="bevel"
       transform="matrix(1,0,0,1,0,0)"
       font-family="Sans Serif"
       font-size="9"
       font-weight="400"
       font-style="normal"
       id="g98" />
    <g
       fill="#a0a0a4"
       fill-opacity="1"
       stroke="#000000"
       stroke-opacity="1"
       stroke-width="2"
       stroke-linecap="square"
       stroke-linejoin="bevel"
       transform="matrix(1,0,0,1,183.037,514.094)"
       font-family="Sans Serif"
       font-size="9"
       font-weight="400"
       font-style="normal"
       id="g100">
      <path
         vector-effect="none"
         fill-rule="evenodd"
         d="M10,5 C10,7.76142 7.76142,10 5,10 C2.23858,10 0,7.76142 0,5 C0,2.23858 2.23858,0 5,0 C7.76142,0 10,2.23858 10,5 "
         id="path102" />
    </g>
    <g
       fill="#a0a0a4"
       fill-opacity="1"
       stroke="#000000"
       stroke-opacity="1"
       stroke-width="2"
       stroke-linecap="square"
       stroke-linejoin="bevel"
       transform="matrix(1,0,0,1,0,0)"
       font-family="Sans Serif"
       font-size="9"
       font-weight="400"
       font-style="normal"
       id="g104" />
    <g
       fill="#a0a0a4"
       fill-opacity="1"
       stroke="#000000"
       stroke-opacity="1"
       stroke-width="2"
       stroke-linecap="square"
       stroke-linejoin="bevel"
       transform="matrix(1,0,0,1,225.35,747.437)"
       font-family="Sans Serif"
       font-size="9"
       font-weight="400"
       font-style="normal"
       id="g106">
      <path
         vector-effect="none"
         fill-rule="evenodd"
         d="M10,5 C10,7.76142 7.76142,10 5,10 C2.23858,10 0,7.76142 0,5 C0,2.23858 2.23858,0 5,0 C7.76142,0 10,2.23858 10,5 "
         id="path108" />
    </g>
    <g
       fill="#a0a0a4"
       fill-opacity="1"
       stroke="#000000"
       stroke-opacity="1"
       stroke-width="2"
       stroke-linecap="square"
       stroke-linejoin="bevel"
       transform="matrix(1,0,0,1,0,0)"
       font-family="Sans Serif"
       font-size="9"
       font-weight="400"
       font-style="normal"
       id="g110" />
    <g
       fill="#a0a0a4"
       fill-opacity="1"
       stroke="#000000"
       stroke-opacity="1"
       stroke-width="2"
       stroke-linecap="square"
       stroke-linejoin="bevel"
       transform="matrix(1,0,0,1,721.871,257.968)"
       font-family="Sans Serif"
       font-size="9"
       font-weight="400"
       font-style="normal"
       id="g112">
      <path
         vector-effect="none"
         fill-rule="evenodd"
         d="M10,5 C10,7.76142 7.76142,10 5,10 C2.23858,10 0,7.76142 0,5 C0,2.23858 2.23858,0 5,0 C7.76142,0 10,2.23858 10,5 "
         id="path114" />
    </g>
    <g
       fill="#a0a0a4"
       fill-opacity="1"
       stroke="#000000"
       stroke-opacity="1"
       stroke-width="2"
       stroke-linecap="square"
       stroke-linejoin="bevel"
       transform="matrix(1,0,0,1,0,0)"
       font-family="Sans Serif"
       font-size="9"
       font-weight="400"
       font-style="normal"
       id="g116" />
    <g
       fill="#a0a0a4"
       fill-opacity="1"
       stroke="#000000"
       stroke-opacity="1"
       stroke-width="2"
       stroke-linecap="square"
       stroke-linejoin="bevel"
       transform="matrix(1,0,0,1,217.832,152.23)"
       font-family="Sans Serif"
       font-size="9"
       font-weight="400"
       font-style="normal"
       id="g118">
      <path
         vector-effect="none"
         fill-rule="evenodd"
         d="M10,5 C10,7.76142 7.76142,10 5,10 C2.23858,10 0,7.76142 0,5 C0,2.23858 2.23858,0 5,0 C7.76142,0 10,2.23858 10,5 "
         id="path120" />
    </g>
    <g
       fill="#a0a0a4"
       fill-opacity="1"
       stroke="#000000"
       stroke-opacity="1"
       stroke-width="2"
       stroke-linecap="square"
       stroke-linejoin="bevel"
       transform="matrix(1,0,0,1,0,0)"
       font-family="Sans Serif"
       font-size="9"
       font-weight="400"
       font-style="normal"
       id="g122" />
    <g
       fill="#a0a0a4"
       fill-opacity="1"
       stroke="#000000"
       stroke-opacity="1"
       stroke-width="2"
       stroke-linecap="square"
       stroke-linejoin="bevel"
       transform="matrix(1,0,0,1,206.261,750)"
       font-family="Sans Serif"
       font-size="9"
       font-weight="400"
       font-style="normal"
       id="g124">
      <path
         vector-effect="none"
         fill-rule="evenodd"
         d="M10,5 C10,7.76142 7.76142,10 5,10 C2.23858,10 0,7.76142 0,5 C0,2.23858 2.23858,0 5,0 C7.76142,0 10,2.23858 10,5 "
         id="path126" />
    </g>
    <g
       fill="#a0a0a4"
       fill-opacity="1"
       stroke="#000000"
       stroke-opacity="1"
       stroke-width="2"
       stroke-linecap="square"
       stroke-linejoin="bevel"
       transform="matrix(1,0,0,1,0,0)"
       font-family="Sans Serif"
       font-size="9"
       font-weight="400"
       font-style="normal"
       id="g128" />
    <g
       fill="#a0a0a4"
       fill-opacity="1"
       stroke="#000000"
       stroke-opacity="1"
       stroke-width="2"
       stroke-linecap="square"
       stroke-linejoin="bevel"
       transform="matrix(1,0,0,1,20.8303,225.585)"
       font-family="Sans Serif"
       font-size="9"
       font-weight="400"
       font-style="normal"
       id="g130">
      <path
         vector-effect="none"
         fill-rule="evenodd"
         d="M10,5 C10,7.76142 7.76142,10 5,10 C2.23858,10 0,7.76142 0,5 C0,2.23858 2.23858,0 5,0 C7.76142,0 10,2.23858 10,5 "
         id="path132" />
    </g>
    <g
       fill="#a0a0a4"
       fill-opacity="1"
       stroke="#000000"
       stroke-opacity="1"
       stroke-width="2"
       stroke-linecap="square"
       stroke-linejoin="bevel"
       transform="matrix(1,0,0,1,0,0)"
       font-family="Sans Serif"
       font-size="9"
       font-weight="400"
       font-style="normal"
       id="g134" />
    <g
       fill="#a0a0a4"
       fill-opacity="1"
       stroke="#000000"
       stroke-opacity="1"
       stroke-width="2"
       stroke-linecap="square"
       stroke-linejoin="bevel"
       transform="matrix(1,0,0,1,311.865,574.722)"
       font-family="Sans Serif"
       font-size="9"
       font-weight="400"
       font-style="normal"
       id="g136">
      <path
         vector-effect="none"
         fill-rule="evenodd"
         d="M10,5 C10,7.76142 7.76142,10 5,10 C2.23858,10 0,7.76142 0,5 C0,2.23858 2.23858,0 5,0 C7.76142,0 10,2.23858 10,5 "
         id="path138" />
    </g>
    <g
       fill="#a0a0a4"
       fill-opacity="1"
       stroke="#000000"
       stroke-opacity="1"
       stroke-width="2"
       stroke-linecap="square"
       stroke-linejoin="bevel"
       transform="matrix(1,0,0,1,0,0)"
       font-family="Sans Serif"
       font-size="9"
       font-weight="400"
       font-style="normal"
       id="g140" />
    <g
       fill="#a0a0a4"
       fill-opacity="1"
       stroke="#000000"
       stroke-opacity="1"
       stroke-width="2"
       stroke-linecap="square"
       stroke-linejoin="bevel"
       transform="matrix(1,0,0,1,265.687,105.861)"
       font-family="Sans Serif"
       font-size="9"
       font-weight="400"
       font-style="normal"
       id="g142">
      <path
         vector-effect="none"
         fill-rule="evenodd"
         d="M10,5 C10,7.76142 7.76142,10 5,10 C2.23858,10 0,7.76142 0,5 C0,2.23858 2.23858,0 5,0 C7.76142,0 10,2.23858 10,5 "
         id="path144" />
    </g>
    <g
       fill="#a0a0a4"
       fill-opacity="1"
       stroke="#000000"
       stroke-opacity="1"
       stroke-width="2"
       stroke-linecap="square"
       stroke-linejoin="bevel"
       transform="matrix(1,0,0,1,0,0)"
       font-family="Sans Serif"
       font-size="9"
       font-weight="400"
       font-style="normal"
       id="g146" />
    <g
       fill="#a0a0a4"
       fill-opacity="1"
       stroke="#000000"
       stroke-opacity="1"
       stroke-width="2"
       stroke-linecap="square"
       stroke-linejoin="bevel"
       transform="matrix(1,0,0,1,443.392,673.388)"
       font-family="Sans Serif"
       font-size="9"
       font-weight="400"
       font-style="normal"
       id="g148">
      <path
         vector-effect="none"
         fill-rule="evenodd"
         d="M10,5 C10,7.76142 7.76142,10 5,10 C2.23858,10 0,7.76142 0,5 C0,2.23858 2.23858,0 5,0 C7.76142,0 10,2.23858 10,5 "
         id="path150" />
    </g>
    <g
       fill="#a0a0a4"
       fill-opacity="1"
       stroke="#000000"
       stroke-opacity="1"
       stroke-width="2"
       stroke-linecap="square"
       stroke-linejoin="bevel"
       transform="matrix(1,0,0,1,0,0)"
       font-family="Sans Serif"
       font-size="9"
       font-weight="400"
       font-style="normal"
       id="g152" />
    <g
       fill="#a0a0a4"
       fill-opacity="1"
       stroke="#000000"
       stroke-opacity="1"
       stroke-width="2"
       stroke-linecap="square"
       stroke-linejoin="bevel"
       transform="matrix(1,0,0,1,215.407,674.554)"
       font-family="Sans Serif"
       font-size="9"
       font-weight="400"
       font-style="normal"
       id="g154">
      <path
         vector-effect="none"
         fill-rule="evenodd"
         d="M10,5 C10,7.76142 7.76142,10 5,10 C2.23858,10 0,7.76142 0,5 C0,2.23858 2.23858,0 5,0 C7.76142,0 10,2.23858 10,5 "
         id="path156" />
    </g>
    <g
       fill="#a0a0a4"
       fill-opacity="1"
       stroke="#000000"
       stroke-opacity="1"
       stroke-width="2"
       stroke-linecap="square"
       stroke-linejoin="bevel"
       transform="matrix(1,0,0,1,0,0)"
       font-family="Sans Serif"
       font-size="9"
       font-weight="400"
       font-style="normal"
       id="g158" />
    <g
       fill="#a0a0a4"
       fill-opacity="1"
       stroke="#000000"
       stroke-opacity="1"
       stroke-width="2"
       stroke-linecap="square"
       stroke-linejoin="bevel"
       transform="matrix(1,0,0,1,469.291,499.373)"
       font-family="Sans Serif"
       font-size="9"
       font-weight="400"
       font-style="normal"
       id="g160">
      <path
         vector-effect="none"
         fill-rule="evenodd"
         d="M10,5 C10,7.76142 7.76142,10 5,10 C2.23858,10 0,7.76142 0,5 C0,2.23858 2.23858,0 5,0 C7.76142,0 10,2.23858 10,5 "
         id="path162" />
    </g>
    <g
       fill="#a0a0a4"
       fill-opacity="1"
       stroke="#000000"
       stroke-opacity="1"
       stroke-width="2"
       stroke-linecap="square"
       stroke-linejoin="bevel"
       transform="matrix(1,0,0,1,0,0)"
       font-family="Sans Serif"
       font-size="9"
       font-weight="400"
       font-style="normal"
       id="g164" />
    <g
       fill="#00ff00"
       fill-opacity="1"
       stroke="#000000"
       stroke-opacity="1"
       stroke-width="2"
       stroke-linecap="square"
       stroke-linejoin="bevel"
       transform="matrix(1,0,0,1,0,0)"
       font-family="Sans Serif"
       font-size="9"
       font-weight="400"
       font-style="normal"
       id="g166">
      <path
         vector-effect="none"
         fill-rule="evenodd"
         d="M386,421 C386,425.418 382.418,429 378,429 C373.582,429 370,425.418 370,421 C370,416.582 373.582,413 378,413 C382.418,413 386,416.582 386,421 "
         id="path168" />
    </g>
    <g
       fill="#ff0000"
       fill-opacity="1"
       stroke="#000000"
       stroke-opacity="1"
       stroke-width="2"
       stroke-linecap="square"
       stroke-linejoin="bevel"
       transform="matrix(1,0,0,1,0,0)"
       font-family="Sans Serif"
       font-size="9"
       font-weight="400"
       font-style="normal"
       id="g170">
      <path
         vector-effect="none"
         fill-rule="evenodd"
         d="M232,159 C232,163.418 228.418,167 224,167 C219.582,167 216,163.418 216,159 C216,154.582 219.582,151 224,151 C228.418,151 232,154.582 232,159 "
         id="path172" />
      <path
         vector-effect="none"
         fill-rule="evenodd"
         d="M621,494 C621,498.418 617.418,502 613,502 C608.582,502 605,498.418 605,494 C605,489.582 608.582,486 613,486 C617.418,486 621,489.582 621,494 "
         id="path174" />
      <path
         vector-effect="none"
         fill-rule="evenodd"
         d="M568,206 C568,210.418 564.418,214 560,214 C555.582,214 552,210.418 552,206 C552,201.582 555.582,198 560,198 C564.418,198 568,201.582 568,206 "
         id="path176" />
      <path
         vector-effect="none"
         fill-rule="evenodd"
         d="M198,521 C198,525.418 194.418,529 190,529 C185.582,529 182,525.418 182,521 C182,516.582 185.582,513 190,513 C194.418,513 198,516.582 198,521 "
         id="path178" />
    </g>
    <g
       fill="#0000ff"
       fill-opacity="1"
       stroke="#000000"
       stroke-opacity="1"
       stroke-width="1"
       stroke-linecap="square"
       stroke-linejoin="bevel"
       transform="matrix(1,0,0,1,0,0)"
       font-family="Sans Serif"
       font-size="9"
       font-weight="400"
       font-style="normal"
       id="g180">
      <polyline
         fill="none"
         vector-effect="none"
         points="755,124 558,204 "
         id="polyline182" />
      <polyline
         fill="none"
         vector-effect="none"
         points="755,124 651,51 "
         id="polyline184" />
      <polyline
         fill="none"
         vector-effect="none"
         points="755,124 610,100 "
         id="polyline186" />
      <polyline
         fill="none"
         vector-effect="none"
         points="755,124 684,357 "
         id="polyline188" />
      <polyline
         fill="none"
         vector-effect="none"
         points="755,124 639,66 "
         id="polyline190" />
      <polyline
         fill="none"
         vector-effect="none"
         points="755,124 726,262 "
         id="polyline192" />
      <polyline
         fill="none"
         vector-effect="none"
         points="558,204 488,358 "
         id="polyline194" />
      <polyline
         fill="none"
         vector-effect="none"
         points="558,204 651,51 "
         id="polyline196" />
      <polyline
         fill="none"
         vector-effect="none"
         points="558,204 610,100 "
         id="polyline198" />
      <polyline
         fill="none"
         vector-effect="none"
         points="558,204 684,357 "
         id="polyline200" />
      <polyline
         fill="none"
         vector-effect="none"
         points="558,204 639,66 "
         id="polyline202" />
      <polyline
         fill="none"
         vector-effect="none"
         points="558,204 611,492 "
         id="polyline204" />
      <polyline
         fill="none"
         vector-effect="none"
         points="558,204 378,421 "
         id="polyline206" />
      <polyline
         fill="none"
         vector-effect="none"
         points="558,204 726,262 "
         id="polyline208" />
      <polyline
         fill="none"
         vector-effect="none"
         points="558,204 270,110 "
         id="polyline210" />
      <polyline
         fill="none"
         vector-effect="none"
         points="49,445 112,451 "
         id="polyline212" />
      <polyline
         fill="none"
         vector-effect="none"
         points="49,445 198,488 "
         id="polyline214" />
      <polyline
         fill="none"
         vector-effect="none"
         points="49,445 188,519 "
         id="polyline216" />
      <polyline
         fill="none"
         vector-effect="none"
         points="49,445 25,230 "
         id="polyline218" />
      <polyline
         fill="none"
         vector-effect="none"
         points="49,445 316,579 "
         id="polyline220" />
      <polyline
         fill="none"
         vector-effect="none"
         points="49,445 220,679 "
         id="polyline222" />
      <polyline
         fill="none"
         vector-effect="none"
         points="488,358 610,100 "
         id="polyline224" />
      <polyline
         fill="none"
         vector-effect="none"
         points="488,358 684,357 "
         id="polyline226" />
      <polyline
         fill="none"
         vector-effect="none"
         points="488,358 611,492 "
         id="polyline228" />
      <polyline
         fill="none"
         vector-effect="none"
         points="488,358 378,421 "
         id="polyline230" />
      <polyline
         fill="none"
         vector-effect="none"
         points="488,358 726,262 "
         id="polyline232" />
      <polyline
         fill="none"
         vector-effect="none"
         points="488,358 316,579 "
         id="polyline234" />
      <polyline
         fill="none"
         vector-effect="none"
         points="488,358 474,504 "
         id="polyline236" />
      <polyline
         fill="none"
         vector-effect="none"
         points="651,51 610,100 "
         id="polyline238" />
      <polyline
         fill="none"
         vector-effect="none"
         points="651,51 639,66 "
         id="polyline240" />
      <polyline
         fill="none"
         vector-effect="none"
         points="651,51 726,262 "
         id="polyline242" />
      <polyline
         fill="none"
         vector-effect="none"
         points="112,451 198,488 "
         id="polyline244" />
      <polyline
         fill="none"
         vector-effect="none"
         points="112,451 378,421 "
         id="polyline246" />
      <polyline
         fill="none"
         vector-effect="none"
         points="112,451 188,519 "
         id="polyline248" />
      <polyline
         fill="none"
         vector-effect="none"
         points="112,451 25,230 "
         id="polyline250" />
      <polyline
         fill="none"
         vector-effect="none"
         points="112,451 316,579 "
         id="polyline252" />
      <polyline
         fill="none"
         vector-effect="none"
         points="112,451 220,679 "
         id="polyline254" />
      <polyline
         fill="none"
         vector-effect="none"
         points="198,488 378,421 "
         id="polyline256" />
      <polyline
         fill="none"
         vector-effect="none"
         points="198,488 188,519 "
         id="polyline258" />
      <polyline
         fill="none"
         vector-effect="none"
         points="198,488 230,752 "
         id="polyline260" />
      <polyline
         fill="none"
         vector-effect="none"
         points="198,488 211,755 "
         id="polyline262" />
      <polyline
         fill="none"
         vector-effect="none"
         points="198,488 316,579 "
         id="polyline264" />
      <polyline
         fill="none"
         vector-effect="none"
         points="198,488 220,679 "
         id="polyline266" />
      <polyline
         fill="none"
         vector-effect="none"
         points="198,488 474,504 "
         id="polyline268" />
      <polyline
         fill="none"
         vector-effect="none"
         points="610,100 684,357 "
         id="polyline270" />
      <polyline
         fill="none"
         vector-effect="none"
         points="610,100 639,66 "
         id="polyline272" />
      <polyline
         fill="none"
         vector-effect="none"
         points="610,100 726,262 "
         id="polyline274" />
      <polyline
         fill="none"
         vector-effect="none"
         points="684,357 639,66 "
         id="polyline276" />
      <polyline
         fill="none"
         vector-effect="none"
         points="684,357 650,643 "
         id="polyline278" />
      <polyline
         fill="none"
         vector-effect="none"
         points="684,357 611,492 "
         id="polyline280" />
      <polyline
         fill="none"
         vector-effect="none"
         points="684,357 726,262 "
         id="polyline282" />
      <polyline
         fill="none"
         vector-effect="none"
         points="684,357 474,504 "
         id="polyline284" />
      <polyline
         fill="none"
         vector-effect="none"
         points="639,66 726,262 "
         id="polyline286" />
      <polyline
         fill="none"
         vector-effect="none"
         points="650,643 611,492 "
         id="polyline288" />
      <polyline
         fill="none"
         vector-effect="none"
         points="650,643 660,671 "
         id="polyline290" />
      <polyline
         fill="none"
         vector-effect="none"
         points="650,643 448,678 "
         id="polyline292" />
      <polyline
         fill="none"
         vector-effect="none"
         points="650,643 474,504 "
         id="polyline294" />
      <polyline
         fill="none"
         vector-effect="none"
         points="611,492 378,421 "
         id="polyline296" />
      <polyline
         fill="none"
         vector-effect="none"
         points="611,492 660,671 "
         id="polyline298" />
      <polyline
         fill="none"
         vector-effect="none"
         points="611,492 726,262 "
         id="polyline300" />
      <polyline
         fill="none"
         vector-effect="none"
         points="611,492 448,678 "
         id="polyline302" />
      <polyline
         fill="none"
         vector-effect="none"
         points="611,492 474,504 "
         id="polyline304" />
      <polyline
         fill="none"
         vector-effect="none"
         points="378,421 188,519 "
         id="polyline306" />
      <polyline
         fill="none"
         vector-effect="none"
         points="378,421 316,579 "
         id="polyline308" />
      <polyline
         fill="none"
         vector-effect="none"
         points="378,421 448,678 "
         id="polyline310" />
      <polyline
         fill="none"
         vector-effect="none"
         points="378,421 220,679 "
         id="polyline312" />
      <polyline
         fill="none"
         vector-effect="none"
         points="378,421 474,504 "
         id="polyline314" />
      <polyline
         fill="none"
         vector-effect="none"
         points="660,671 448,678 "
         id="polyline316" />
      <polyline
         fill="none"
         vector-effect="none"
         points="660,671 474,504 "
         id="polyline318" />
      <polyline
         fill="none"
         vector-effect="none"
         points="188,519 230,752 "
         id="polyline320" />
      <polyline
         fill="none"
         vector-effect="none"
         points="188,519 211,755 "
         id="polyline322" />
      <polyline
         fill="none"
         vector-effect="none"
         points="188,519 316,579 "
         id="polyline324" />
      <polyline
         fill="none"
         vector-effect="none"
         points="188,519 220,679 "
         id="polyline326" />
      <polyline
         fill="none"
         vector-effect="none"
         points="188,519 474,504 "
         id="polyline328" />
      <polyline
         fill="none"
         vector-effect="none"
         points="230,752 211,755 "
         id="polyline330" />
      <polyline
         fill="none"
         vector-effect="none"
         points="230,752 316,579 "
         id="polyline332" />
      <polyline
         fill="none"
         vector-effect="none"
         points="230,752 448,678 "
         id="polyline334" />
      <polyline
         fill="none"
         vector-effect="none"
         points="230,752 220,679 "
         id="polyline336" />
      <polyline
         fill="none"
         vector-effect="none"
         points="222,157 25,230 "
         id="polyline338" />
      <polyline
         fill="none"
         vector-effect="none"
         points="222,157 270,110 "
         id="polyline340" />
      <polyline
         fill="none"
         vector-effect="none"
         points="211,755 316,579 "
         id="polyline342" />
      <polyline
         fill="none"
         vector-effect="none"
         points="211,755 448,678 "
         id="polyline344" />
      <polyline
         fill="none"
         vector-effect="none"
         points="211,755 220,679 "
         id="polyline346" />
      <polyline
         fill="none"
         vector-effect="none"
         points="25,230 270,110 "
         id="polyline348" />
      <polyline
         fill="none"
         vector-effect="none"
         points="316,579 448,678 "
         id="polyline350" />
      <polyline
         fill="none"
         vector-effect="none"
         points="316,579 220,679 "
         id="polyline352" />
      <polyline
         fill="none"
         vector-effect="none"
         points="316,579 474,504 "
         id="polyline354" />
      <polyline
         fill="none"
         vector-effect="none"
         points="448,678 220,679 "
         id="polyline356" />
      <polyline
         fill="none"
         vector-effect="none"
         points="448,678 474,504 "
         id="polyline358" />
    </g>
  </g>
  <text
     xml:space="preserve"
     style="font-size:16.0000001px;font-style:normal;font-weight:bold;text-align:center;line-height:125%;letter-spacing:0px;word-spacing:0px;text-anchor:middle;fill:#000000;fill-opacity:1;stroke:none;font-family:Arial;-inkscape-font-specification:Arial Bold;font-stretch:normal;font-variant:normal"
     x="428.25296"
     y="488.10571"
     id="text3339"
     sodipodi:linespacing="125%"
     transform="scale(0.79999964,0.79999964)"><tspan
       sodipodi:role="line"
       id="tspan3341"
       x="428.25296"
       y="488.10571" /></text>
  <text
     xml:space="preserve"
     style="font-size:11.19999504px;font-style:normal;font-weight:bold;text-align:center;line-height:125%;letter-spacing:0px;word-spacing:0px;text-anchor:middle;fill:#000000;fill-opacity:1;stroke:none;font-family:Sans;-inkscape-font-specification:Sans Bold"
     x="312.44617"
     y="403.37128"
     id="text3343"
     sodipodi:linespacing="125%"><tspan
       sodipodi:role="line"
       id="tspan3345"
       x="312.44617"
       y="403.37128"
       style="font-size:25.59999084px">Nó Sink</tspan></text>
  <text
     xml:space="preserve"
     style="font-size:11.19999599px;font-style:normal;font-weight:bold;text-align:center;line-height:125%;letter-spacing:0px;word-spacing:0px;text-anchor:middle;fill:#000000;fill-opacity:1;stroke:none;font-family:Sans;-inkscape-font-specification:Sans Bold"
     x="498.53113"
     y="220.42705"
     id="text3343-3"
     sodipodi:linespacing="125%"><tspan
       sodipodi:role="line"
       id="tspan3345-8"
       x="498.53113"
       y="220.42705"
       style="font-size:25.59999275px;font-weight:normal;-inkscape-font-specification:Sans">Evento</tspan></text>
  <text
     xml:space="preserve"
     style="font-size:11.19999695px;font-style:normal;font-weight:bold;text-align:center;line-height:125%;letter-spacing:0px;word-spacing:0px;text-anchor:middle;fill:#000000;fill-opacity:1;stroke:none;font-family:Sans;-inkscape-font-specification:Sans Bold"
     x="230.88692"
     y="190.71811"
     id="text3343-3-8"
     sodipodi:linespacing="125%"><tspan
       sodipodi:role="line"
       id="tspan3345-8-4"
       x="230.88692"
       y="190.71811"
       style="font-size:25.59999275px;font-weight:normal;-inkscape-font-specification:Sans">Evento</tspan></text>
  <text
     xml:space="preserve"
     style="font-size:11.19999695px;font-style:normal;font-weight:bold;text-align:center;line-height:125%;letter-spacing:0px;word-spacing:0px;text-anchor:middle;fill:#000000;fill-opacity:1;stroke:none;font-family:Sans;-inkscape-font-specification:Sans Bold"
     x="663.49689"
     y="504.60681"
     id="text3343-3-8-9"
     sodipodi:linespacing="125%"><tspan
       sodipodi:role="line"
       id="tspan3345-8-4-0"
       x="663.49689"
       y="504.60681"
       style="font-size:25.59999466px;font-weight:normal;-inkscape-font-specification:Sans">Evento</tspan></text>
  <text
     xml:space="preserve"
     style="font-size:11.19999695px;font-style:normal;font-weight:bold;text-align:center;line-height:125%;letter-spacing:0px;word-spacing:0px;text-anchor:middle;fill:#000000;fill-opacity:1;stroke:none;font-family:Sans;-inkscape-font-specification:Sans Bold"
     x="142.09557"
     y="532.29187"
     id="text3343-3-8-1"
     sodipodi:linespacing="125%"><tspan
       sodipodi:role="line"
       id="tspan3345-8-4-9"
       x="142.09557"
       y="532.29187"
       style="font-size:25.59999466px;font-weight:normal;-inkscape-font-specification:Sans">Evento</tspan></text>
</svg>
